<svg width="74" height="90" viewBox="0 0 74 90" fill="none" xmlns="http://www.w3.org/2000/svg">
<path d="M46.399 70.107V67.285C46.399 62.325 48.414 57.56 51.928 54.212C56.324 50.023 58.745 44.373 58.745 38.303C58.745 26.184 48.886 16.325 36.767 16.325C35.94 16.325 35.1 16.371 34.271 16.463C23.771 17.624 15.411 26.476 14.824 37.054C14.47 43.433 16.89 49.637 21.464 54.074C25.068 57.57 27.135 62.384 27.135 67.282V70.106C27.135 73.105 29.574 75.544 32.573 75.544H40.96C43.959 75.546 46.399 73.106 46.399 70.107V70.107ZM42.399 70.107C42.399 70.9 41.753 71.545 40.961 71.545H32.574C31.781 71.545 31.136 70.899 31.136 70.107V67.283C31.136 61.31 28.626 55.45 24.25 51.204C20.509 47.575 18.529 42.498 18.819 37.277C19.299 28.627 26.131 21.389 34.712 20.44C35.396 20.364 36.088 20.326 36.769 20.326C46.682 20.326 54.747 28.39 54.747 38.304C54.747 43.269 52.767 47.89 49.171 51.317C44.869 55.416 42.401 61.236 42.401 67.286V70.107H42.399Z" fill="black"/>
<path d="M43.276 77.521H30.258C29.429 77.521 28.758 78.192 28.758 79.021C28.758 79.85 29.429 80.521 30.258 80.521H43.277C44.106 80.521 44.777 79.85 44.777 79.021C44.777 78.192 44.105 77.521 43.276 77.521Z" fill="black"/>
<path d="M44.776 83.761C44.776 82.932 44.105 82.261 43.276 82.261H30.258C29.429 82.261 28.758 82.932 28.758 83.761C28.758 84.59 29.429 85.261 30.258 85.261H43.277C44.105 85.261 44.776 84.589 44.776 83.761Z" fill="black"/>
<path d="M1.5 38.267H10.143C10.972 38.267 11.643 37.596 11.643 36.767C11.643 35.938 10.972 35.267 10.143 35.267H1.5C0.671 35.267 0 35.938 0 36.767C0 37.596 0.671 38.267 1.5 38.267Z" fill="black"/>
<path d="M73.534 36.767C73.534 35.938 72.863 35.267 72.034 35.267H63.391C62.562 35.267 61.891 35.938 61.891 36.767C61.891 37.596 62.562 38.267 63.391 38.267H72.034C72.863 38.267 73.534 37.596 73.534 36.767Z" fill="black"/>
<path d="M35.267 1.5V10.143C35.267 10.972 35.938 11.643 36.767 11.643C37.596 11.643 38.267 10.972 38.267 10.143V1.5C38.267 0.671 37.596 0 36.767 0C35.938 0 35.267 0.671 35.267 1.5Z" fill="black"/>
<path d="M60.644 10.769L54.533 16.88C53.947 17.465 53.947 18.416 54.533 19.001C54.826 19.294 55.21 19.44 55.594 19.44C55.978 19.44 56.362 19.294 56.655 19.001L62.766 12.89C63.352 12.305 63.352 11.354 62.766 10.769C62.179 10.183 61.23 10.183 60.644 10.769V10.769Z" fill="black"/>
<path d="M19.001 54.533C18.415 53.947 17.466 53.947 16.88 54.533L10.769 60.644C10.183 61.229 10.183 62.179 10.769 62.765C11.062 63.058 11.446 63.204 11.83 63.204C12.214 63.204 12.598 63.058 12.891 62.765L19.002 56.654C19.587 56.069 19.587 55.119 19.001 54.533Z" fill="black"/>
<path d="M16.88 19.001C17.173 19.294 17.557 19.44 17.941 19.44C18.325 19.44 18.709 19.294 19.002 19.001C19.588 18.416 19.588 17.465 19.002 16.88L12.891 10.769C12.305 10.183 11.356 10.183 10.77 10.769C10.184 11.354 10.184 12.305 10.77 12.89L16.88 19.001Z" fill="black"/>
<path d="M60.644 62.765C60.937 63.058 61.321 63.204 61.705 63.204C62.089 63.204 62.473 63.058 62.766 62.765C63.352 62.179 63.352 61.229 62.766 60.644L56.655 54.533C56.069 53.947 55.12 53.947 54.534 54.533C53.948 55.119 53.948 56.069 54.534 56.654L60.644 62.765Z" fill="black"/>
<path d="M41.521 88.5C41.521 87.671 40.85 87 40.021 87H33.512C32.683 87 32.012 87.671 32.012 88.5C32.012 89.329 32.683 90 33.512 90H40.021C40.85 90 41.521 89.329 41.521 88.5Z" fill="black"/>
</svg>
