<svg width="512" height="512" viewBox="0 0 512 512" fill="none" xmlns="http://www.w3.org/2000/svg">
<path d="M256 0C157.885 0 78.063 79.822 78.063 177.936C78.063 224.916 96.207 269.232 129.151 302.72L131.778 305.384C144.618 318.895 154.297 334.842 160.326 352.255L159.734 352.627C148.34 359.79 141.536 372.082 141.536 385.502C141.536 398.781 148.16 410.669 158.641 417.704C157.718 421.038 157.219 424.513 157.219 428.061C157.219 449.478 174.643 466.902 196.06 466.902H199.853C205.545 492.665 228.551 512 256 512C283.449 512 306.455 492.664 312.147 466.901H315.94C337.357 466.901 354.781 449.477 354.781 428.06C354.781 424.512 354.282 421.037 353.359 417.703C363.841 410.669 370.464 398.78 370.464 385.501C370.464 372.081 363.662 359.79 352.266 352.626L351.674 352.254C357.679 334.906 367.308 319.014 380.079 305.535L382.849 302.719C415.794 269.232 433.937 224.916 433.937 177.935C433.937 79.822 354.115 0 256 0ZM256 481.583C245.535 481.583 236.438 475.619 231.926 466.912H280.073C275.563 475.619 266.466 481.583 256 481.583ZM315.94 436.483H313.511V436.378L298.198 436.483H213.827L198.49 436.278V436.483H196.061C191.416 436.483 187.637 432.704 187.637 428.059C187.637 426.498 188.07 424.995 188.857 423.696H323.144C323.931 424.994 324.364 426.497 324.364 428.059C324.364 432.705 320.585 436.483 315.94 436.483ZM334.822 393.281H333.856H178.145H177.179C174.046 392.011 171.953 388.975 171.953 385.502C171.953 383.757 172.491 382.097 173.463 380.71H338.538C339.509 382.096 340.048 383.757 340.048 385.502C340.048 388.974 337.955 392.01 334.822 393.281ZM239.773 350.293V260.145H272.226V350.293H239.773ZM362.011 280.522L361.262 281.269C341.868 300.595 327.886 324.261 320.383 350.293H302.645V260.145H312.204C334.247 260.145 352.18 242.211 352.18 220.168C352.18 198.126 334.246 180.192 312.204 180.192C290.162 180.192 272.228 198.126 272.228 220.168V229.728H239.775V220.168C239.775 198.126 221.841 180.192 199.799 180.192C177.757 180.192 159.823 198.126 159.823 220.168C159.823 242.211 177.757 260.145 199.799 260.145H209.358V350.293H191.62C184.117 324.26 170.134 300.594 150.74 281.269L150.03 280.563C123.228 252.9 108.481 216.499 108.481 177.935C108.481 96.593 174.658 30.417 256 30.417C337.342 30.417 403.52 96.594 403.52 177.936C403.52 216.481 388.787 252.864 362.011 280.522ZM302.644 229.728V220.168C302.644 214.898 306.932 210.609 312.203 210.609C317.474 210.609 321.762 214.897 321.762 220.168C321.762 225.439 317.474 229.728 312.203 229.728H302.644ZM209.356 220.168V229.728H199.797C194.526 229.728 190.238 225.44 190.238 220.168C190.238 214.898 194.526 210.609 199.797 210.609C205.068 210.609 209.356 214.897 209.356 220.168Z" fill="white"/>
</svg>
