<svg width="204" height="233" viewBox="0 0 204 233" fill="none" xmlns="http://www.w3.org/2000/svg">
<path d="M201.071 123.071C204.976 119.166 204.976 112.834 201.071 108.929L137.431 45.2893C133.526 41.3841 127.195 41.3841 123.289 45.2893C119.384 49.1946 119.384 55.5262 123.289 59.4315L179.858 116L123.289 172.569C119.384 176.474 119.384 182.805 123.289 186.711C127.195 190.616 133.526 190.616 137.431 186.711L201.071 123.071ZM52 126H194V106H52V126Z" fill="white"/>
<path d="M97 10L25 10C16.7157 10 10 16.7157 10 25L10 208C10 216.284 16.7157 223 25 223H97" stroke="white" stroke-width="20" stroke-linecap="round"/>
</svg>
